<?xml version="1.0" standalone="no"?>
<!DOCTYPE svg PUBLIC "-//W3C//DTD SVG 20010904//EN"
 "http://www.w3.org/TR/2001/REC-SVG-20010904/DTD/svg10.dtd">
<svg version="1.0" xmlns="http://www.w3.org/2000/svg"
 width="512.000000pt" height="512.000000pt" viewBox="0 0 512.000000 512.000000"
 preserveAspectRatio="xMidYMid meet">
<metadata>
Created by potrace 1.14, written by Peter Selinger 2001-2017
</metadata>
<g transform="translate(0.000000,512.000000) scale(0.100000,-0.100000)"
fill="#000000" stroke="none">
<path d="M622 5007 c-62 -62 -109 -117 -105 -121 5 -4 1 -6 -7 -4 -11 2 -16
-8 -18 -38 -3 -35 1 -45 24 -63 51 -40 88 -25 191 81 39 41 79 80 88 88 14 11
29 0 119 -88 96 -95 106 -102 143 -102 53 0 83 31 83 86 0 37 -6 45 -120 157
l-121 117 -82 0 -82 0 -113 -113z m98 59 c0 -2 -8 -10 -17 -17 -16 -13 -17
-12 -4 4 13 16 21 21 21 13z"/>
<path d="M2348 5003 c-67 -67 -120 -129 -123 -144 -8 -31 16 -83 40 -93 9 -3
30 -6 47 -6 26 0 49 18 139 106 l108 107 109 -107 c97 -94 114 -106 145 -106
46 0 76 26 84 73 6 37 4 39 -118 162 l-123 125 -96 0 -95 0 -117 -117z"/>
<path d="M4098 5003 c-67 -67 -120 -129 -123 -144 -8 -31 16 -83 40 -93 9 -3
31 -6 48 -6 27 0 53 21 180 143 142 135 148 144 145 177 l-3 35 -85 3 -85 3
-117 -118z"/>
<path d="M298 4683 c-24 -20 -91 -84 -150 -142 -90 -88 -105 -108 -95 -121 10
-13 10 -13 -4 -3 -13 11 -19 9 -34 -7 -15 -17 -16 -22 -4 -37 8 -9 9 -14 2
-10 -8 5 -11 -30 -12 -131 l-2 -137 149 -148 c135 -134 152 -147 184 -147 54
0 88 32 88 83 0 39 -5 46 -165 207 l-165 165 143 141 c78 78 157 155 175 172
25 24 32 38 32 69 0 32 -6 43 -30 61 -41 31 -63 28 -112 -15z m-258 -347 c0 4
10 -2 23 -14 13 -12 27 -19 30 -15 4 3 7 4 7 1 0 -3 -8 -12 -17 -19 -10 -7
-15 -9 -11 -5 9 11 -11 38 -22 31 -4 -2 -16 5 -26 18 -16 18 -16 19 -1 8 9 -7
17 -10 17 -5z"/>
<path d="M1205 4695 c-18 -17 -25 -35 -25 -62 0 -36 9 -47 227 -260 l228 -223
50 0 50 0 222 223 c211 211 223 225 223 261 0 48 -36 86 -82 86 -28 0 -54 -22
-222 -190 l-191 -189 -191 189 c-179 179 -192 190 -228 190 -26 0 -44 -7 -61
-25z"/>
<path d="M2972 4713 c-22 -9 -44 -63 -37 -92 4 -16 91 -111 228 -248 l222
-223 50 0 51 0 227 228 c238 239 242 244 212 301 -16 32 -33 41 -78 41 -27 0
-56 -25 -221 -190 l-191 -189 -191 189 c-175 175 -193 190 -225 189 -19 0 -40
-3 -47 -6z"/>
<path d="M4903 4130 c-221 -227 -228 -238 -207 -295 10 -24 62 -47 93 -40 17
4 82 61 179 158 l153 153 -3 121 -3 121 -212 -218z"/>
<path d="M1465 4103 c-11 -3 -120 -104 -242 -226 -220 -219 -223 -222 -223
-264 0 -33 5 -46 26 -62 31 -25 55 -26 92 -7 15 8 123 111 240 228 186 188
212 218 212 245 0 54 -54 98 -105 86z"/>
<path d="M1824 4086 c-21 -17 -28 -33 -28 -59 0 -33 17 -53 218 -261 176 -182
224 -227 251 -232 58 -11 104 27 105 86 0 32 -17 52 -228 262 -201 201 -231
228 -259 228 -19 0 -43 -10 -59 -24z"/>
<path d="M3195 4097 c-11 -7 -116 -109 -232 -228 -208 -210 -213 -216 -213
-256 0 -49 34 -83 84 -83 27 0 60 29 258 228 217 216 228 229 228 265 0 68
-68 109 -125 74z"/>
<path d="M3603 4103 c-32 -6 -53 -41 -53 -87 0 -39 7 -47 208 -249 208 -210
241 -237 285 -237 37 0 77 46 77 88 0 33 -16 52 -212 250 -193 194 -251 245
-275 241 -4 -1 -18 -4 -30 -6z"/>
<path d="M549 3671 c-53 -53 -41 -81 82 -206 l89 -90 -161 -160 c-88 -88 -165
-171 -170 -184 -13 -34 6 -85 37 -100 59 -26 69 -20 246 156 l168 167 133
-132 c126 -125 136 -132 173 -132 51 0 73 16 83 62 7 28 5 43 -9 65 -10 15
-143 153 -297 306 -252 250 -282 277 -312 277 -23 0 -41 -9 -62 -29z"/>
<path d="M4173 3397 c-310 -309 -310 -309 -282 -371 14 -31 60 -50 96 -41 17
4 81 59 161 138 l132 131 168 -167 c145 -144 173 -167 199 -167 45 0 62 9 79
42 27 52 13 74 -161 248 l-164 164 94 97 c84 87 95 102 95 134 0 50 -36 85
-87 85 -36 0 -50 -12 -330 -293z"/>
<path d="M2337 3243 c-104 -104 -193 -199 -198 -212 -12 -30 6 -87 31 -101 10
-6 33 -10 51 -10 29 0 51 19 186 152 l153 152 153 -152 c139 -138 157 -152
188 -152 58 0 101 56 82 108 -9 22 -355 377 -385 393 -49 27 -65 15 -261 -178z"/>
<path d="M239 2872 c-9 -4 -67 -55 -128 -114 l-111 -108 0 -98 0 -97 103 -102
c106 -104 131 -123 167 -123 33 0 70 47 70 89 0 32 -11 46 -101 137 l-100 100
105 101 c90 85 106 105 106 131 0 44 -9 61 -41 77 -30 16 -45 17 -70 7z"/>
<path d="M1365 2855 c-18 -17 -25 -35 -25 -61 0 -34 10 -47 100 -138 l99 -101
-99 -101 c-90 -91 -100 -105 -100 -138 0 -50 36 -86 86 -86 34 0 48 10 166
127 l128 127 125 -124 c124 -123 126 -125 171 -125 55 0 84 28 84 83 0 31 -11
46 -100 136 l-99 101 99 101 c90 91 100 104 100 138 0 47 -36 86 -80 86 -26 0
-53 -21 -166 -126 l-136 -127 -101 100 c-56 55 -117 112 -135 126 -43 34 -85
35 -117 2z"/>
<path d="M3063 2868 c-28 -14 -47 -60 -38 -95 3 -15 48 -70 100 -123 l94 -95
-94 -95 c-52 -53 -97 -108 -100 -123 -9 -36 10 -82 41 -96 56 -25 71 -17 206
116 l128 127 128 -127 c116 -114 132 -127 164 -127 50 0 88 37 88 87 0 35 -8
47 -100 138 l-100 99 100 102 c93 94 100 104 100 141 0 52 -31 83 -85 83 -36
0 -47 -9 -166 -127 l-129 -127 -129 127 c-136 133 -152 142 -208 115z"/>
<path d="M4799 2851 c-53 -53 -38 -89 85 -210 l85 -85 -94 -97 c-52 -53 -97
-109 -101 -123 -8 -35 12 -81 42 -95 55 -25 72 -16 191 101 l113 112 0 101 0
102 -114 111 c-130 127 -153 137 -207 83z"/>
<path d="M401 2164 c-45 -57 -36 -72 149 -259 l170 -170 -97 -98 c-90 -89 -98
-100 -98 -136 0 -55 26 -81 79 -81 40 0 47 6 334 290 160 160 292 298 293 308
5 73 -21 107 -81 107 -38 0 -47 -7 -175 -135 l-135 -134 -168 167 c-163 162
-170 167 -209 167 -33 0 -46 -6 -62 -26z"/>
<path d="M2155 2165 c-18 -17 -25 -35 -25 -61 0 -35 11 -48 191 -223 105 -102
202 -190 215 -194 13 -5 34 -5 47 0 12 4 106 94 210 199 171 174 187 193 187
225 0 50 -30 79 -82 79 -40 0 -47 -5 -192 -150 l-151 -149 -151 149 c-140 140
-153 150 -188 150 -26 0 -44 -7 -61 -25z"/>
<path d="M4441 2025 l-166 -164 -136 134 c-125 125 -138 135 -173 135 -69 0
-105 -64 -72 -128 25 -47 558 -570 589 -577 36 -9 82 10 96 41 24 54 15 73
-84 173 l-94 96 164 166 c160 161 165 168 165 208 0 55 -26 81 -82 81 -41 0
-46 -4 -207 -165z"/>
<path d="M1022 1557 c-15 -16 -22 -36 -22 -62 0 -38 9 -48 224 -264 212 -212
227 -225 262 -225 46 0 84 39 84 87 0 27 -27 59 -227 259 -213 213 -230 228
-263 228 -25 0 -43 -7 -58 -23z"/>
<path d="M2245 1569 c-11 -6 -113 -104 -228 -218 -220 -218 -240 -246 -215
-298 16 -34 61 -57 94 -49 15 4 123 104 250 229 215 212 224 224 224 260 0 68
-66 108 -125 76z"/>
<path d="M2776 1559 c-21 -16 -26 -29 -26 -62 0 -42 3 -45 223 -264 137 -137
232 -224 248 -228 31 -8 83 16 93 40 3 9 6 31 6 48 0 28 -27 59 -228 259 -198
199 -231 228 -258 228 -17 0 -43 -9 -58 -21z"/>
<path d="M3974 1551 c-21 -16 -126 -116 -231 -223 -186 -189 -193 -196 -193
-235 0 -58 27 -88 79 -88 41 0 46 4 266 226 213 213 225 227 225 262 0 47 -36
87 -78 87 -16 0 -46 -13 -68 -29z"/>
<path d="M310 1309 c-14 -5 -89 -74 -168 -152 l-143 -142 2 -147 2 -147 161
-159 c89 -87 169 -162 178 -165 24 -9 76 11 88 33 6 10 10 33 10 51 0 29 -19
52 -167 201 -93 93 -170 171 -172 173 -3 3 68 79 157 169 157 158 162 165 162
205 0 39 -25 81 -49 81 -5 0 -15 2 -23 4 -7 3 -24 0 -38 -5z"/>
<path d="M4715 1295 c-18 -17 -25 -35 -25 -62 0 -35 12 -49 215 -253 l215
-215 0 125 0 125 -142 142 c-79 77 -153 146 -165 152 -35 18 -72 13 -98 -14z"/>
<path d="M1625 951 c-57 -36 -433 -424 -441 -455 -14 -58 44 -116 102 -102 19
5 91 69 214 192 l185 184 175 -176 c216 -217 238 -230 296 -180 21 18 28 32
28 60 0 35 -13 50 -230 267 -211 210 -233 229 -264 229 -19 0 -48 -9 -65 -19z"/>
<path d="M3375 951 c-53 -33 -432 -424 -439 -453 -14 -60 37 -115 97 -104 25
5 73 47 217 191 l185 185 185 -184 c118 -118 195 -187 213 -192 61 -15 118 42
102 103 -7 31 -401 434 -447 459 -37 19 -77 18 -113 -5z"/>
<path d="M531 328 c-9 -19 -11 -19 -6 -3 5 18 3 17 -13 -3 -23 -30 -29 -97 -8
-89 10 4 13 1 9 -9 -4 -11 28 -49 98 -120 l104 -104 100 0 101 0 112 113 c105
107 112 116 112 154 0 52 -31 83 -84 83 -34 0 -47 -9 -145 -105 l-107 -105
-105 105 c-112 112 -144 128 -168 83z"/>
<path d="M2262 343 c-22 -9 -44 -63 -37 -92 3 -15 55 -75 118 -138 l112 -113
105 0 106 0 112 113 c105 107 112 116 112 154 0 52 -31 83 -84 83 -34 0 -47
-9 -144 -104 l-107 -105 -106 105 c-94 92 -110 104 -140 103 -19 0 -40 -3 -47
-6z"/>
<path d="M3995 325 c-18 -17 -25 -35 -25 -61 0 -34 9 -46 118 -150 l117 -114
88 0 87 0 0 33 c0 29 -17 49 -143 175 -133 132 -146 142 -181 142 -26 0 -44
-7 -61 -25z"/>
</g>
</svg>
