<?xml version="1.0" standalone="no"?>
<!DOCTYPE svg PUBLIC "-//W3C//DTD SVG 20010904//EN"
 "http://www.w3.org/TR/2001/REC-SVG-20010904/DTD/svg10.dtd">
<svg version="1.0" xmlns="http://www.w3.org/2000/svg"
 width="700.000000pt" height="700.000000pt" viewBox="0 0 700.000000 700.000000"
 preserveAspectRatio="xMidYMid meet">
<metadata>
Created by potrace 1.14, written by Peter Selinger 2001-2017
</metadata>
<g transform="translate(0.000000,700.000000) scale(0.100000,-0.100000)"
fill="#000000" stroke="none">
<path d="M0 3500 l0 -3500 3500 0 3500 0 0 3500 0 3500 -3500 0 -3500 0 0
-3500z m886 3277 c24 -28 24 -29 24 -273 l0 -246 -29 -29 -29 -29 -246 0
c-169 0 -253 4 -271 12 -51 23 -55 47 -55 299 l0 231 34 34 35 35 256 -3 257
-3 24 -28z m1144 18 c16 -8 34 -24 40 -34 6 -12 10 -114 10 -260 0 -239 0
-240 -24 -268 l-24 -28 -266 0 c-263 0 -266 0 -288 23 -22 22 -23 28 -26 259
-3 256 1 283 47 308 39 21 490 21 531 0z m1169 0 c48 -24 52 -50 49 -308 -3
-231 -4 -237 -26 -259 -22 -23 -25 -23 -288 -23 l-266 0 -24 28 c-24 28 -24
29 -24 268 0 145 4 248 10 259 24 45 51 49 303 50 189 0 244 -3 266 -15z
m1170 1 c47 -25 51 -49 51 -291 0 -152 -4 -232 -12 -250 -23 -51 -46 -55 -313
-55 l-247 0 -29 29 -29 29 0 244 c0 262 3 278 54 298 11 5 128 9 259 9 187 1
244 -2 266 -13z m1188 -19 l28 -27 3 -223 c2 -142 -1 -235 -8 -259 -19 -64
-35 -68 -314 -68 l-244 0 -31 26 -31 26 0 247 c0 265 3 280 54 301 11 5 132 8
268 7 l248 -2 27 -28z m1170 0 l28 -27 0 -246 0 -246 -33 -29 -32 -29 -250 0
-250 0 -32 29 -33 29 0 245 c0 231 1 246 20 267 11 12 29 26 40 31 11 4 131 7
267 6 l248 -2 27 -28z m-3397 -1107 l0 -130 -301 0 c-184 0 -299 -4 -297 -9 5
-15 1002 -1380 1008 -1380 3 0 229 311 503 692 l498 692 -335 3 -336 2 0 130
0 130 960 0 960 0 0 -130 0 -130 -442 -2 -442 -3 -584 -810 c-321 -445 -586
-815 -589 -822 -3 -7 397 -561 888 -1233 l893 -1220 268 0 268 0 0 -130 0
-130 -1270 0 -1270 0 0 130 0 130 295 0 c162 0 295 2 295 5 0 6 -1093 1522
-1128 1565 -18 22 -23 15 -585 -769 -312 -434 -567 -795 -567 -801 0 -7 131
-10 410 -10 l410 0 0 -125 0 -125 -1010 0 -1010 0 0 125 0 125 412 2 412 3
663 920 c365 506 662 925 661 932 -2 7 -365 514 -808 1127 l-805 1115 -282 1
-283 0 0 130 0 130 1270 0 1270 0 0 -130z m-2444 -4933 c24 -28 24 -29 24
-273 l0 -246 -29 -29 -29 -29 -246 0 c-169 0 -253 4 -271 12 -51 23 -55 47
-55 296 0 219 1 231 21 256 12 15 31 32 43 36 11 5 133 8 269 7 l249 -2 24
-28z m1144 18 c16 -8 34 -24 40 -34 6 -12 10 -115 10 -261 l0 -242 -30 -29
-29 -30 -260 3 c-256 3 -261 3 -283 26 -22 22 -23 28 -26 259 -3 262 1 286 52
309 47 20 486 20 526 -1z m1164 1 c53 -22 57 -45 54 -309 -3 -231 -4 -237 -26
-259 -22 -23 -27 -23 -283 -26 l-260 -3 -29 30 -30 29 0 236 c0 129 4 246 10
260 19 50 45 55 298 56 176 0 241 -3 266 -14z m1197 -24 l29 -32 0 -231 c0
-251 -6 -280 -56 -299 -14 -6 -136 -10 -270 -10 l-246 0 -29 29 -29 29 0 242
c0 146 4 249 10 260 25 46 49 50 313 47 l249 -2 29 -33z m1166 5 l28 -27 3
-223 c2 -142 -1 -235 -8 -259 -19 -64 -35 -68 -314 -68 l-244 0 -31 26 -31 26
0 247 c0 265 3 280 54 301 11 5 132 8 268 7 l248 -2 27 -28z m1170 0 l28 -27
0 -246 0 -246 -33 -29 -32 -29 -245 0 c-161 0 -253 4 -269 11 -51 24 -57 58
-54 308 3 213 4 231 23 251 11 12 29 26 40 31 11 4 131 7 267 6 l248 -2 27
-28z"/>
</g>
</svg>
